<?xml version="1.0" encoding="iso-8859-1"?>
<!-- Generator: Adobe Illustrator 21.1.0, SVG Export Plug-In . SVG Version: 6.00 Build 0)  -->
<!DOCTYPE svg PUBLIC "-//W3C//DTD SVG 1.1//EN" "http://www.w3.org/Graphics/SVG/1.1/DTD/svg11.dtd">
<svg version="1.1" id="f002c-Layer_1" xmlns="http://www.w3.org/2000/svg" xmlns:xlink="http://www.w3.org/1999/xlink" x="0px" y="0px"
	 width="23.967875em" height="8.10475em" viewBox="0 0 191.743 64.838" enable-background="new 0 0 191.743 64.838" xml:space="preserve">
<g>
	<g>
		<path d="M122.187,25.493c0-0.256,0.191-0.456,0.447-0.456s0.448,0.2,0.448,0.456c0,0.28-0.192,0.464-0.448,0.464
			S122.187,25.772,122.187,25.493z"/>
		<path d="M124.011,25.493c0-0.256,0.191-0.456,0.447-0.456s0.448,0.2,0.448,0.456c0,0.28-0.192,0.464-0.448,0.464
			S124.011,25.772,124.011,25.493z"/>
		<path d="M125.835,25.493c0-0.256,0.191-0.456,0.447-0.456s0.448,0.2,0.448,0.456c0,0.28-0.192,0.464-0.448,0.464
			S125.835,25.772,125.835,25.493z"/>
	</g>
	<rect x="8.269" y="41.862" fill="#F2F2F2" width="8.873" height="8.76"/>
	<rect x="8.284" y="41.862" fill="none" stroke="#000000" stroke-width="0.5" stroke-miterlimit="2" width="8.863" height="8.752"/>
	<path fill="none" stroke="#000000" stroke-width="0.5" stroke-miterlimit="2" d="M49.673,9.013V0.261V9.013z"/>
	<path fill="none" stroke="#000000" stroke-width="0.5" stroke-miterlimit="2" d="M40.798,0.25h8.864H40.798z"/>
	<line fill="none" stroke="#000000" stroke-width="0.5" stroke-miterlimit="2" x1="8.267" y1="41.861" x2="40.788" y2="0.264"/>
	<line fill="none" stroke="#000000" stroke-width="0.5" stroke-miterlimit="2" x1="17.142" y1="50.621" x2="49.663" y2="9.024"/>
	<line fill="none" stroke="#000000" stroke-width="0.5" stroke-miterlimit="2" x1="17.139" y1="41.862" x2="49.659" y2="0.266"/>
	<g>
		<path d="M0.872,49.752v-0.215c0.728-0.057,0.768-0.121,0.768-0.696v-3.078c0-0.416-0.032-0.456-0.384-0.472l-0.384-0.016v-0.185
			c0.512-0.088,0.983-0.239,1.423-0.415v4.165c0,0.575,0.048,0.64,0.775,0.696v0.215H0.872z"/>
	</g>
	<g>
		<path d="M11.96,57.485V57.27c0.728-0.057,0.768-0.121,0.768-0.696v-3.078c0-0.416-0.032-0.456-0.384-0.472l-0.384-0.016v-0.185
			c0.512-0.088,0.983-0.239,1.423-0.415v4.165c0,0.575,0.048,0.64,0.775,0.696v0.215H11.96z"/>
	</g>
	<g>
		<path d="M21.134,17.935v-0.224c0.648-0.064,0.68-0.104,0.672-0.952l-0.024-3.262H21.75l-1.951,4.381h-0.16l-1.791-4.27h-0.016
			l-0.12,2.279c-0.032,0.656-0.032,1.007-0.024,1.327c0.016,0.384,0.208,0.44,0.735,0.496v0.224h-1.863v-0.224
			c0.463-0.056,0.624-0.144,0.68-0.48c0.04-0.28,0.088-0.632,0.152-1.463l0.112-1.663c0.072-1.039,0.032-1.071-0.696-1.143v-0.224
			h1.312l1.823,3.998l1.847-3.998h1.359v0.224c-0.704,0.064-0.76,0.08-0.736,0.903l0.08,2.895c0.024,0.848,0.048,0.887,0.744,0.952
			v0.224H21.134z"/>
	</g>
	<g>
		<path d="M85.294,56.986c-0.448,0.024-0.64,0.128-0.672,0.479c-0.032,0.24-0.048,0.6-0.048,1.344v3.222h-0.248l-3.406-4.189h-0.016
			v2.007c0,0.735,0.024,1.119,0.048,1.352c0.04,0.407,0.224,0.504,0.768,0.535v0.225h-1.895v-0.225
			c0.464-0.023,0.664-0.128,0.704-0.52c0.024-0.248,0.048-0.632,0.048-1.367v-1.759c0-0.584-0.016-0.616-0.16-0.808
			c-0.16-0.2-0.336-0.264-0.712-0.296v-0.224h1.184l3.334,4.014h0.024v-1.967c0-0.736-0.032-1.104-0.056-1.328
			c-0.04-0.359-0.232-0.463-0.784-0.495v-0.224h1.887V56.986z"/>
	</g>
	
		<line fill="none" stroke="#000000" stroke-width="0.5" stroke-linecap="round" stroke-linejoin="round" stroke-miterlimit="10" x1="90.198" y1="60.111" x2="108.827" y2="60.111"/>
	
		<polyline fill="none" stroke="#000000" stroke-width="0.5" stroke-linecap="round" stroke-linejoin="round" stroke-miterlimit="10" points="
		106.721,62.18 108.823,60.103 106.721,58.027 	"/>
	
		<line fill="none" stroke="#000000" stroke-width="0.5" stroke-linecap="round" stroke-linejoin="round" stroke-miterlimit="10" x1="71.851" y1="60.111" x2="53.523" y2="60.111"/>
	
		<polyline fill="none" stroke="#000000" stroke-width="0.5" stroke-linecap="round" stroke-linejoin="round" stroke-miterlimit="10" points="
		55.603,58.042 53.5,60.119 55.603,62.195 	"/>
	<rect x="62.848" y="41.862" fill="#F2F2F2" width="8.873" height="8.76"/>
	
		<rect x="62.856" y="41.862" fill="none" stroke="#000000" stroke-width="0.5" stroke-miterlimit="2" width="8.864" height="8.752"/>
	<path fill="none" stroke="#000000" stroke-width="0.5" stroke-miterlimit="2" d="M104.253,9.013V0.261V9.013z"/>
	<path fill="none" stroke="#000000" stroke-width="0.5" stroke-miterlimit="2" d="M95.378,0.25h8.863H95.378z"/>
	<line fill="none" stroke="#000000" stroke-width="0.5" stroke-miterlimit="2" x1="62.849" y1="41.861" x2="95.369" y2="0.265"/>
	<line fill="none" stroke="#000000" stroke-width="0.5" stroke-miterlimit="2" x1="71.719" y1="50.623" x2="104.239" y2="9.026"/>
	<line fill="none" stroke="#000000" stroke-width="0.5" stroke-miterlimit="2" x1="71.72" y1="41.863" x2="104.24" y2="0.267"/>
	<rect x="150.09" y="41.95" fill="#F2F2F2" width="8.871" height="8.76"/>
	
		<rect x="150.103" y="41.973" fill="none" stroke="#000000" stroke-width="0.5" stroke-miterlimit="2" width="8.864" height="8.752"/>
	<path fill="none" stroke="#000000" stroke-width="0.5" stroke-miterlimit="2" d="M191.493,9.098V0.347V9.098z"/>
	<path fill="none" stroke="#000000" stroke-width="0.5" stroke-miterlimit="2" d="M182.622,0.339h8.863H182.622z"/>
	<line fill="none" stroke="#000000" stroke-width="0.5" stroke-miterlimit="2" x1="150.091" y1="41.95" x2="182.611" y2="0.353"/>
	<line fill="none" stroke="#000000" stroke-width="0.5" stroke-miterlimit="2" x1="158.963" y1="50.708" x2="191.483" y2="9.111"/>
	<line fill="none" stroke="#000000" stroke-width="0.5" stroke-miterlimit="2" x1="158.963" y1="41.951" x2="191.482" y2="0.354"/>
</g>
<g>
</g>
<g>
</g>
<g>
</g>
<g>
</g>
<g>
</g>
<g>
</g>
</svg>
