<?xml version="1.0" encoding="iso-8859-1"?>
<!-- Generator: Adobe Illustrator 21.1.0, SVG Export Plug-In . SVG Version: 6.00 Build 0)  -->
<!DOCTYPE svg PUBLIC "-//W3C//DTD SVG 1.1//EN" "http://www.w3.org/Graphics/SVG/1.1/DTD/svg11.dtd">
<svg version="1.1" id="f002a-Layer_1" xmlns="http://www.w3.org/2000/svg" xmlns:xlink="http://www.w3.org/1999/xlink" x="0px" y="0px"
	 width="23.88775em" height="11.2325em" viewBox="0 0 191.102 89.86" enable-background="new 0 0 191.102 89.86" xml:space="preserve">
<g>
	<g>
		<path d="M15.166,27.482v-0.224c0.648-0.064,0.68-0.104,0.672-0.952l-0.024-3.262h-0.032l-1.951,4.381h-0.16l-1.791-4.27h-0.016
			l-0.12,2.279c-0.032,0.656-0.032,1.007-0.024,1.327c0.016,0.384,0.208,0.44,0.735,0.496v0.224h-1.863v-0.224
			c0.464-0.056,0.624-0.144,0.68-0.48c0.04-0.28,0.088-0.632,0.152-1.463l0.112-1.663c0.072-1.039,0.032-1.071-0.696-1.143v-0.224
			h1.312l1.823,3.998l1.847-3.998h1.359v0.224c-0.704,0.064-0.76,0.08-0.736,0.903l0.08,2.895c0.024,0.848,0.048,0.887,0.744,0.952
			v0.224H15.166z"/>
	</g>
	<g>
		<path d="M87.125,82.007c-0.448,0.024-0.64,0.128-0.672,0.479c-0.032,0.24-0.048,0.6-0.048,1.343v3.222h-0.248l-3.406-4.189h-0.016
			v2.007c0,0.736,0.024,1.12,0.048,1.351c0.04,0.408,0.224,0.504,0.768,0.536v0.224h-1.895v-0.224
			c0.464-0.024,0.664-0.128,0.704-0.52c0.024-0.248,0.048-0.631,0.048-1.367V83.11c0-0.583-0.016-0.615-0.16-0.807
			c-0.16-0.2-0.336-0.264-0.711-0.296v-0.224h1.183l3.334,4.014h0.024V83.83c0-0.735-0.032-1.104-0.056-1.327
			c-0.04-0.36-0.232-0.464-0.784-0.496v-0.224h1.887V82.007z"/>
	</g>
	
		<line fill="none" stroke="#000000" stroke-width="0.5" stroke-linecap="round" stroke-linejoin="round" stroke-miterlimit="10" x1="56.44" y1="84.232" x2="75.129" y2="84.232"/>
	
		<polyline fill="none" stroke="#000000" stroke-width="0.5" stroke-linecap="round" stroke-linejoin="round" stroke-miterlimit="10" points="
		57.693,82.985 56.451,84.221 57.693,85.485 	"/>
	
		<line fill="none" stroke="#000000" stroke-width="0.5" stroke-linecap="round" stroke-linejoin="round" stroke-miterlimit="10" x1="94.48" y1="84.232" x2="112.948" y2="84.232"/>
	
		<polyline fill="none" stroke="#000000" stroke-width="0.5" stroke-linecap="round" stroke-linejoin="round" stroke-miterlimit="10" points="
		111.704,85.48 112.946,84.244 111.704,82.98 	"/>
	<rect x="14.055" y="46.228" fill="#FFFFFF" width="22.83" height="22.724"/>
	
		<rect x="14.055" y="46.228" fill="none" stroke="#000000" stroke-width="0.5" stroke-linecap="round" stroke-linejoin="round" stroke-miterlimit="10" width="22.83" height="22.724"/>
	
		<line fill="none" stroke="#000000" stroke-width="0.5" stroke-linecap="round" stroke-linejoin="round" stroke-miterlimit="10" x1="38.69" y1="0.25" x2="61.52" y2="0.25"/>
	
		<line fill="none" stroke="#000000" stroke-width="0.5" stroke-linecap="round" stroke-linejoin="round" stroke-miterlimit="10" x1="61.511" y1="0.25" x2="61.511" y2="22.974"/>
	
		<line fill="none" stroke="#000000" stroke-width="0.5" stroke-linecap="round" stroke-linejoin="round" stroke-miterlimit="10" x1="14.055" y1="46.227" x2="38.686" y2="0.258"/>
	
		<line fill="none" stroke="#000000" stroke-width="0.5" stroke-linecap="round" stroke-linejoin="round" stroke-miterlimit="10" x1="36.879" y1="46.226" x2="61.509" y2="0.257"/>
	
		<line fill="none" stroke="#000000" stroke-width="0.5" stroke-linecap="round" stroke-linejoin="round" stroke-miterlimit="10" x1="36.879" y1="68.944" x2="61.51" y2="22.976"/>
	<rect x="66.229" y="46.228" fill="#FFFFFF" width="22.802" height="22.724"/>
	
		<rect x="66.229" y="46.228" fill="none" stroke="#000000" stroke-width="0.5" stroke-linecap="round" stroke-linejoin="round" stroke-miterlimit="10" width="22.83" height="22.724"/>
	
		<line fill="none" stroke="#000000" stroke-width="0.5" stroke-linecap="round" stroke-linejoin="round" stroke-miterlimit="10" x1="90.855" y1="0.25" x2="113.686" y2="0.25"/>
	
		<line fill="none" stroke="#000000" stroke-width="0.5" stroke-linecap="round" stroke-linejoin="round" stroke-miterlimit="10" x1="113.68" y1="0.25" x2="113.68" y2="22.974"/>
	
		<line fill="none" stroke="#000000" stroke-width="0.5" stroke-linecap="round" stroke-linejoin="round" stroke-miterlimit="10" x1="66.222" y1="46.226" x2="90.853" y2="0.258"/>
	
		<line fill="none" stroke="#000000" stroke-width="0.5" stroke-linecap="round" stroke-linejoin="round" stroke-miterlimit="10" x1="89.046" y1="46.226" x2="113.677" y2="0.257"/>
	
		<line fill="none" stroke="#000000" stroke-width="0.5" stroke-linecap="round" stroke-linejoin="round" stroke-miterlimit="10" x1="89.046" y1="68.943" x2="113.677" y2="22.975"/>
	<rect x="143.387" y="46.228" fill="#FFFFFF" width="22.802" height="22.724"/>
	
		<rect x="143.387" y="46.228" fill="none" stroke="#000000" stroke-width="0.5" stroke-linecap="round" stroke-linejoin="round" stroke-miterlimit="10" width="22.83" height="22.724"/>
	
		<line fill="none" stroke="#000000" stroke-width="0.5" stroke-linecap="round" stroke-linejoin="round" stroke-miterlimit="10" x1="168.021" y1="0.25" x2="190.852" y2="0.25"/>
	
		<line fill="none" stroke="#000000" stroke-width="0.5" stroke-linecap="round" stroke-linejoin="round" stroke-miterlimit="10" x1="190.846" y1="0.25" x2="190.846" y2="22.974"/>
	
		<line fill="none" stroke="#000000" stroke-width="0.5" stroke-linecap="round" stroke-linejoin="round" stroke-miterlimit="10" x1="143.386" y1="46.227" x2="168.017" y2="0.258"/>
	
		<line fill="none" stroke="#000000" stroke-width="0.5" stroke-linecap="round" stroke-linejoin="round" stroke-miterlimit="10" x1="166.21" y1="46.226" x2="190.841" y2="0.257"/>
	
		<line fill="none" stroke="#000000" stroke-width="0.5" stroke-linecap="round" stroke-linejoin="round" stroke-miterlimit="10" x1="166.211" y1="68.944" x2="190.842" y2="22.976"/>
	<g >
		<path d="M23.093,73.667c1.016,0,1.767,0.208,2.263,0.68c0.392,0.384,0.672,0.968,0.672,1.719c0,0.959-0.368,1.671-0.983,2.135
			c-0.6,0.464-1.392,0.664-2.375,0.664h-1.895v-0.216c0.688-0.048,0.752-0.096,0.752-0.775v-3.207c0-0.688-0.064-0.72-0.68-0.768
			v-0.232H23.093z M22.214,77.816c0,0.607,0.264,0.759,0.848,0.759c1.495,0,2.183-1.119,2.183-2.398
			c0-0.824-0.304-1.535-0.943-1.911c-0.36-0.231-0.824-0.328-1.359-0.328c-0.336,0-0.543,0.04-0.624,0.096
			c-0.08,0.056-0.104,0.144-0.104,0.456V77.816z"/>
		<path d="M29.467,80.864c-0.461-0.521-0.947-1.109-1.487-1.745c-0.138-0.162-0.222-0.186-0.324-0.168v1.14
			c0,0.527,0.06,0.569,0.552,0.605v0.168h-1.559v-0.168c0.456-0.036,0.51-0.078,0.51-0.605v-2.345c0-0.546-0.054-0.576-0.528-0.612
			v-0.168h1.547v0.168c-0.462,0.036-0.522,0.078-0.522,0.612v1.049c0.132-0.036,0.252-0.12,0.42-0.276
			c0.33-0.318,0.738-0.731,1.007-1.062c0.174-0.216,0.174-0.276-0.102-0.306l-0.132-0.018v-0.168h1.439v0.168
			c-0.456,0.042-0.594,0.102-0.978,0.45c-0.228,0.21-0.654,0.636-1.062,1.049c0.456,0.564,1.109,1.308,1.409,1.631
			c0.318,0.342,0.438,0.396,0.732,0.432v0.168H29.467z"/>
	</g>
	<g >
		<path d="M2.583,54.245c1.016,0,1.767,0.208,2.263,0.68c0.392,0.384,0.672,0.968,0.672,1.719c0,0.959-0.368,1.671-0.983,2.135
			c-0.6,0.464-1.392,0.664-2.375,0.664H0.264v-0.216c0.688-0.048,0.752-0.096,0.752-0.775v-3.207c0-0.688-0.064-0.72-0.68-0.768
			v-0.232H2.583z M1.703,58.395c0,0.607,0.264,0.759,0.848,0.759c1.495,0,2.183-1.119,2.183-2.398c0-0.824-0.304-1.535-0.943-1.911
			c-0.36-0.231-0.824-0.328-1.359-0.328c-0.336,0-0.543,0.04-0.624,0.096c-0.08,0.056-0.104,0.144-0.104,0.456V58.395z"/>
		<path d="M8.956,61.442c-0.461-0.521-0.947-1.109-1.487-1.745c-0.138-0.162-0.222-0.186-0.324-0.168v1.14
			c0,0.527,0.06,0.569,0.552,0.605v0.168H6.138v-0.168c0.456-0.036,0.51-0.078,0.51-0.605v-2.345c0-0.546-0.054-0.576-0.528-0.612
			v-0.168h1.547v0.168c-0.462,0.036-0.522,0.078-0.522,0.612v1.049c0.132-0.036,0.252-0.12,0.42-0.276
			c0.33-0.318,0.738-0.731,1.007-1.062C8.746,57.82,8.746,57.76,8.47,57.73l-0.132-0.018v-0.168h1.439v0.168
			c-0.456,0.042-0.594,0.102-0.978,0.45c-0.228,0.21-0.654,0.636-1.062,1.049c0.456,0.564,1.109,1.308,1.409,1.631
			c0.318,0.342,0.438,0.396,0.732,0.432v0.168H8.956z"/>
	</g>
	<g>
		<path d="M129.079,35.944c0-0.256,0.191-0.456,0.447-0.456s0.448,0.2,0.448,0.456c0,0.28-0.192,0.463-0.448,0.463
			S129.079,36.224,129.079,35.944z"/>
		<path d="M130.903,35.944c0-0.256,0.191-0.456,0.447-0.456s0.448,0.2,0.448,0.456c0,0.28-0.192,0.463-0.448,0.463
			S130.903,36.224,130.903,35.944z"/>
		<path d="M132.728,35.944c0-0.256,0.191-0.456,0.447-0.456s0.448,0.2,0.448,0.456c0,0.28-0.192,0.463-0.448,0.463
			S132.728,36.224,132.728,35.944z"/>
	</g>
</g>
</svg>
