<?xml version="1.0" encoding="iso-8859-1"?>
<!-- Generator: Adobe Illustrator 21.1.0, SVG Export Plug-In . SVG Version: 6.00 Build 0)  -->
<!DOCTYPE svg PUBLIC "-//W3C//DTD SVG 1.1//EN" "http://www.w3.org/Graphics/SVG/1.1/DTD/svg11.dtd">
<svg version="1.1" id="f002b-Layer_1" xmlns="http://www.w3.org/2000/svg" xmlns:xlink="http://www.w3.org/1999/xlink" x="0px" y="0px"
	 width="23.81375em" height="6.77075em" viewBox="0 0 190.51 54.166" enable-background="new 0 0 190.51 54.166" xml:space="preserve">
<g>
	<g>
		<path d="M128.898,23.458c0-0.256,0.191-0.456,0.447-0.456s0.448,0.2,0.448,0.456c0,0.28-0.192,0.463-0.448,0.463
			S128.898,23.738,128.898,23.458z"/>
		<path d="M130.722,23.458c0-0.256,0.191-0.456,0.447-0.456s0.448,0.2,0.448,0.456c0,0.28-0.192,0.463-0.448,0.463
			S130.722,23.738,130.722,23.458z"/>
		<path d="M132.546,23.458c0-0.256,0.191-0.456,0.447-0.456s0.448,0.2,0.448,0.456c0,0.28-0.192,0.463-0.448,0.463
			S132.546,23.738,132.546,23.458z"/>
	</g>
	<g >
		<path d="M2.583,19.194c1.016,0,1.767,0.208,2.263,0.68c0.392,0.384,0.672,0.968,0.672,1.719c0,0.959-0.368,1.671-0.983,2.135
			c-0.6,0.464-1.392,0.664-2.375,0.664H0.264v-0.216c0.688-0.048,0.752-0.096,0.752-0.775v-3.207c0-0.688-0.064-0.72-0.68-0.768
			v-0.232H2.583z M1.703,23.344c0,0.607,0.264,0.759,0.848,0.759c1.495,0,2.183-1.119,2.183-2.398c0-0.824-0.304-1.535-0.943-1.911
			c-0.36-0.231-0.824-0.328-1.359-0.328c-0.336,0-0.543,0.04-0.624,0.096c-0.08,0.056-0.104,0.144-0.104,0.456V23.344z"/>
		<path d="M8.956,26.391c-0.461-0.521-0.947-1.109-1.487-1.745c-0.138-0.162-0.222-0.186-0.324-0.168v1.14
			c0,0.527,0.06,0.569,0.552,0.605v0.168H6.138v-0.168c0.456-0.036,0.51-0.078,0.51-0.605v-2.345c0-0.546-0.054-0.576-0.528-0.612
			v-0.168h1.547v0.168c-0.462,0.036-0.522,0.078-0.522,0.612v1.049c0.132-0.036,0.252-0.12,0.42-0.276
			c0.33-0.318,0.738-0.731,1.007-1.062c0.174-0.216,0.174-0.276-0.102-0.306l-0.132-0.018v-0.168h1.439v0.168
			c-0.456,0.042-0.594,0.102-0.978,0.45c-0.228,0.21-0.654,0.636-1.062,1.049c0.456,0.564,1.109,1.308,1.409,1.631
			c0.318,0.342,0.438,0.396,0.732,0.432v0.168H8.956z"/>
	</g>
	<g>
		<path d="M25.749,41.587c1.016,0,1.767,0.208,2.263,0.68c0.392,0.384,0.672,0.968,0.672,1.719c0,0.96-0.368,1.672-0.983,2.135
			c-0.6,0.465-1.392,0.664-2.375,0.664H23.43v-0.216c0.688-0.048,0.752-0.097,0.752-0.775v-3.206c0-0.688-0.064-0.721-0.68-0.768
			v-0.232H25.749z M24.869,45.738c0,0.607,0.264,0.759,0.848,0.759c1.495,0,2.183-1.119,2.183-2.398
			c0-0.823-0.304-1.535-0.943-1.911c-0.36-0.231-0.824-0.328-1.359-0.328c-0.336,0-0.543,0.041-0.624,0.097
			s-0.104,0.144-0.104,0.456V45.738z"/>
		<path d="M32.122,48.785c-0.461-0.521-0.947-1.109-1.487-1.745c-0.138-0.161-0.222-0.187-0.324-0.168v1.14
			c0,0.527,0.06,0.569,0.552,0.605v0.168h-1.559v-0.168c0.456-0.036,0.51-0.078,0.51-0.605v-2.345c0-0.546-0.054-0.575-0.528-0.612
			v-0.168h1.547v0.168c-0.462,0.037-0.522,0.078-0.522,0.612v1.05c0.132-0.037,0.252-0.121,0.42-0.276
			c0.33-0.317,0.738-0.731,1.007-1.062c0.174-0.216,0.174-0.275-0.102-0.306l-0.132-0.019v-0.168h1.439v0.168
			c-0.456,0.043-0.594,0.103-0.978,0.45c-0.228,0.21-0.654,0.636-1.062,1.05c0.456,0.563,1.109,1.307,1.409,1.631
			c0.318,0.342,0.438,0.396,0.732,0.432v0.168H32.122z"/>
	</g>
	<g>
		<path d="M104.306,51.285v-0.224c0.647-0.063,0.68-0.104,0.671-0.951l-0.023-3.263h-0.032l-1.951,4.382h-0.159l-1.791-4.27h-0.017
			l-0.12,2.278c-0.031,0.656-0.031,1.008-0.023,1.328c0.016,0.383,0.208,0.439,0.735,0.495v0.224h-1.863v-0.224
			c0.464-0.056,0.624-0.144,0.68-0.479c0.04-0.279,0.088-0.632,0.152-1.463l0.111-1.664c0.072-1.039,0.032-1.07-0.695-1.143v-0.225
			h1.312l1.823,3.998l1.847-3.998h1.359v0.225c-0.704,0.064-0.76,0.08-0.735,0.903l0.08,2.895c0.023,0.848,0.048,0.888,0.743,0.951
			v0.224H104.306z"/>
	</g>
	
		<line fill="none" stroke="#000000" stroke-width="0.5" stroke-linecap="round" stroke-linejoin="round" stroke-miterlimit="10" x1="119.109" y1="49.236" x2="137.847" y2="49.236"/>
	
		<polyline fill="none" stroke="#000000" stroke-width="0.5" stroke-linecap="round" stroke-linejoin="round" stroke-miterlimit="10" points="
		135.179,51.895 137.842,49.227 135.179,46.559 	"/>
	
		<line fill="none" stroke="#000000" stroke-width="0.5" stroke-linecap="round" stroke-linejoin="round" stroke-miterlimit="10" x1="91.025" y1="49.236" x2="70.432" y2="49.236"/>
	
		<polyline fill="none" stroke="#000000" stroke-width="0.5" stroke-linecap="round" stroke-linejoin="round" stroke-miterlimit="10" points="
		73.081,46.574 70.417,49.241 73.081,51.909 	"/>
	<g>
		<path d="M11.142,6.584V6.368c0.728-0.056,0.768-0.12,0.768-0.696V2.594c0-0.416-0.032-0.456-0.384-0.472l-0.384-0.016V1.922
			c0.512-0.088,0.983-0.24,1.423-0.416v4.166c0,0.576,0.048,0.64,0.775,0.696v0.216H11.142z"/>
	</g>
	<rect x="15.017" y="9.684" fill="#F2F2F2" width="26.214" height="25.319"/>
	
		<rect x="15.001" y="9.691" fill="none" stroke="#000000" stroke-width="0.5" stroke-miterlimit="2" width="26.205" height="25.296"/>
	
		<line fill="none" stroke="#000000" stroke-width="0.5" stroke-linecap="round" stroke-linejoin="round" stroke-miterlimit="10" x1="41.228" y1="9.683" x2="47.416" y2="3.485"/>
	
		<line fill="none" stroke="#000000" stroke-width="0.5" stroke-linecap="round" stroke-linejoin="round" stroke-miterlimit="10" x1="15.018" y1="9.683" x2="21.205" y2="3.485"/>
	
		<line fill="none" stroke="#000000" stroke-width="0.5" stroke-linecap="round" stroke-linejoin="round" stroke-miterlimit="10" x1="21.189" y1="3.503" x2="47.394" y2="3.503"/>
	
		<line fill="none" stroke="#000000" stroke-width="0.5" stroke-linecap="round" stroke-linejoin="round" stroke-miterlimit="10" x1="47.405" y1="3.504" x2="47.96" y2="27.984"/>
	
		<line fill="none" stroke="#000000" stroke-width="0.5" stroke-linecap="round" stroke-linejoin="round" stroke-miterlimit="10" x1="41.233" y1="34.886" x2="47.945" y2="28.001"/>
	<rect x="74.172" y="9.684" fill="#F2F2F2" width="26.213" height="25.319"/>
	
		<rect x="74.165" y="9.691" fill="none" stroke="#000000" stroke-width="0.5" stroke-miterlimit="2" width="26.205" height="25.296"/>
	
		<line fill="none" stroke="#000000" stroke-width="0.5" stroke-linecap="round" stroke-linejoin="round" stroke-miterlimit="10" x1="100.385" y1="9.687" x2="106.574" y2="3.489"/>
	
		<line fill="none" stroke="#000000" stroke-width="0.5" stroke-linecap="round" stroke-linejoin="round" stroke-miterlimit="10" x1="74.171" y1="9.683" x2="80.359" y2="3.485"/>
	
		<line fill="none" stroke="#000000" stroke-width="0.5" stroke-linecap="round" stroke-linejoin="round" stroke-miterlimit="10" x1="80.343" y1="3.503" x2="106.548" y2="3.503"/>
	
		<line fill="none" stroke="#000000" stroke-width="0.5" stroke-linecap="round" stroke-linejoin="round" stroke-miterlimit="10" x1="106.555" y1="3.503" x2="107.11" y2="27.983"/>
	
		<line fill="none" stroke="#000000" stroke-width="0.5" stroke-linecap="round" stroke-linejoin="round" stroke-miterlimit="10" x1="100.384" y1="34.89" x2="107.097" y2="28.005"/>
	<rect x="157.321" y="9.684" fill="#F2F2F2" width="26.214" height="25.319"/>
	
		<rect x="157.298" y="9.691" fill="none" stroke="#000000" stroke-width="0.5" stroke-miterlimit="2" width="26.205" height="25.296"/>
	
		<line fill="none" stroke="#000000" stroke-width="0.5" stroke-linecap="round" stroke-linejoin="round" stroke-miterlimit="10" x1="183.535" y1="9.683" x2="189.722" y2="3.485"/>
	
		<line fill="none" stroke="#000000" stroke-width="0.5" stroke-linecap="round" stroke-linejoin="round" stroke-miterlimit="10" x1="157.32" y1="9.687" x2="163.508" y2="3.489"/>
	
		<line fill="none" stroke="#000000" stroke-width="0.5" stroke-linecap="round" stroke-linejoin="round" stroke-miterlimit="10" x1="163.491" y1="3.503" x2="189.696" y2="3.503"/>
	
		<line fill="none" stroke="#000000" stroke-width="0.5" stroke-linecap="round" stroke-linejoin="round" stroke-miterlimit="10" x1="189.706" y1="3.5" x2="190.26" y2="27.98"/>
	
		<line fill="none" stroke="#000000" stroke-width="0.5" stroke-linecap="round" stroke-linejoin="round" stroke-miterlimit="10" x1="183.533" y1="35.006" x2="190.253" y2="27.997"/>
</g>
<g>
</g>
<g>
</g>
<g>
</g>
<g>
</g>
<g>
</g>
<g>
</g>
</svg>
